<?xml version="1.0" encoding="UTF-8" standalone="no"?>
<!-- Created with Inkscape (http://www.inkscape.org/) -->

<svg
   width="37.468864mm"
   height="37.492222mm"
   viewBox="0 0 37.468864 37.492222"
   version="1.1"
   id="svg1"
   xml:space="preserve"
   xmlns="http://www.w3.org/2000/svg"
   xmlns:svg="http://www.w3.org/2000/svg"><defs
     id="defs1"><clipPath
       clipPathUnits="userSpaceOnUse"
       id="clipPath72"><g
         id="g77"
         style="display:none"><g
           id="g76"><path
             style="fill:#ffffff;fill-opacity:1"
             d="m 106.57203,114.90625 c -0.8024,-0.8024 -0.22166,-2.23006 0.90715,-2.23006 0.6313,0 1.32291,0.69161 1.32291,1.32292 0,1.12881 -1.42765,1.70955 -2.23006,0.90714 z"
             id="path72" /><path
             style="fill:#ffffff;fill-opacity:1"
             d="m 119.27203,124.69583 c -0.48335,-0.48334 -0.52604,-1.00046 -0.14188,-1.71828 0.31042,-0.58003 1.55135,-0.69737 2.05444,-0.19427 0.74826,0.74826 0.066,2.32833 -1.00541,2.32833 -0.27026,0 -0.67847,-0.1871 -0.90715,-0.41578 z"
             id="path73" /><path
             style="fill:#ffffff;fill-opacity:1"
             d="m 93.919284,124.82583 c -0.53187,-0.30979 -0.62142,-1.56665 -0.14552,-2.04255 0.40929,-0.40929 1.60155,-0.40929 2.01083,0 0.44523,0.44522 0.39519,1.41909 -0.0983,1.91255 -0.47494,0.47494 -1.09633,0.52066 -1.76704,0.13 z"
             id="path74" /><path
             style="fill:#ffffff;fill-opacity:1"
             d="m 114.62293,139.66369 c -0.63704,-0.63704 -0.67081,-1.14348 -0.1134,-1.70089 0.55243,-0.55243 1.25478,-0.52575 1.79218,0.0681 0.60013,0.66313 0.54888,1.26048 -0.15015,1.7501 -0.75675,0.53005 -0.89165,0.5197 -1.52863,-0.11729 z"
             id="path75" /><path
             style="fill:#ffffff;fill-opacity:1"
             d="m 98.625284,139.67435 c -0.63739,-0.70431 -0.3538,-1.79949 0.52296,-2.01954 0.916476,-0.23002 1.407246,0.0196 1.607536,0.81759 0.19462,0.77543 -0.47227,1.72046 -1.214096,1.72046 -0.24594,0 -0.65831,-0.23333 -0.9164,-0.51851 z"
             id="path76" /></g><path
           style="fill:#ffffff;fill-opacity:1;stroke:#ec3227;stroke-opacity:1"
           d="m 111.1471,140.04682 c 1.43248,-0.4254 1.88833,-0.99119 1.88833,-2.34372 0,-1.07049 0.83444,-1.53872 2.5613,-1.43721 1.53974,0.0905 1.53974,0.0905 2.66348,-1.58603 1.3439,-2.005 1.99786,-4.06326 2.0286,-6.38482 0.0227,-1.71136 0.0227,-1.71136 -1.17713,-2.28548 -1.95356,-0.93482 -2.03864,-1.15803 -1.22394,-3.21143 0.70013,-1.76462 0.70013,-1.76462 -0.004,-2.78136 -1.36365,-1.96773 -4.84248,-4.32049 -7.10335,-4.80403 -0.68095,-0.14564 -0.93532,-0.0319 -1.70555,0.76281 -1.18296,1.22051 -2.00543,1.22256 -3.18269,0.008 -0.49366,-0.50932 -0.9888,-0.92604 -1.10031,-0.92604 -0.11152,0 -0.86035,0.24604 -1.66407,0.54675 -2.14003,0.80069 -4.428986,2.43303 -5.673226,4.04579 -1.09233,1.41587 -1.09233,1.41587 -0.4284,2.91713 0.97325,2.20069 0.91535,2.40996 -0.92358,3.33825 -1.45082,0.73237 -1.5871,0.87507 -1.5829,1.65745 0.0129,2.40907 1.26525,5.99868 2.81182,8.05973 0.59634,0.79472 0.72085,0.84264 1.80373,0.69421 2.018316,-0.27664 2.415376,-0.0397 2.833856,1.69104 0.36174,1.49613 0.39209,1.53175 1.68271,1.97505 1.70966,0.58723 5.62139,0.62062 7.49579,0.064 z"
           id="path77" /></g><path
         id="lpe_path-effect77"
         class="powerclip"
         d="m 83.746529,104.02151 h 47.468861 v 47.49222 H 83.746529 Z m 22.825501,10.88474 c 0.80241,0.80241 2.23006,0.22167 2.23006,-0.90714 0,-0.63131 -0.69161,-1.32292 -1.32291,-1.32292 -1.12881,0 -1.70955,1.42766 -0.90715,2.23006 z m 12.7,9.78958 c 0.22868,0.22868 0.63689,0.41578 0.90715,0.41578 1.07141,0 1.75367,-1.58007 1.00541,-2.32833 -0.50309,-0.5031 -1.74402,-0.38576 -2.05444,0.19427 -0.38416,0.71782 -0.34147,1.23494 0.14188,1.71828 z m -25.352746,0.13 h -3e-5 c 0.67071,0.39066 1.2921,0.34494 1.76704,-0.13 0.49349,-0.49346 0.54353,-1.46733 0.0983,-1.91255 -0.40928,-0.40929 -1.60154,-0.40929 -2.01083,0 -0.4759,0.4759 -0.38635,1.73276 0.14552,2.04255 z m 20.703646,14.83786 v 2e-5 c 0.63698,0.63699 0.77188,0.64734 1.52863,0.11729 0.69903,-0.48962 0.75028,-1.08697 0.15015,-1.7501 -0.5374,-0.59385 -1.23975,-0.62053 -1.79218,-0.0681 -0.55741,0.55741 -0.52364,1.06385 0.1134,1.70089 z m -15.997646,0.0107 c 0.25809,0.28518 0.67046,0.51851 0.9164,0.51851 0.741826,0 1.408716,-0.94503 1.214096,-1.72046 -0.20029,-0.79799 -0.69106,-1.04761 -1.607536,-0.81759 -0.87676,0.22005 -1.16035,1.31523 -0.52296,2.01954 z m 12.521816,0.37247 c 1.43248,-0.4254 1.88833,-0.99119 1.88833,-2.34372 0,-1.07049 0.83444,-1.53872 2.5613,-1.43721 1.53974,0.0905 1.53974,0.0905 2.66348,-1.58603 1.3439,-2.005 1.99786,-4.06326 2.0286,-6.38482 0.0227,-1.71136 0.0227,-1.71136 -1.17713,-2.28548 -1.95356,-0.93482 -2.03864,-1.15803 -1.22394,-3.21143 0.70013,-1.76462 0.70013,-1.76462 -0.004,-2.78136 -1.36365,-1.96773 -4.84248,-4.32049 -7.10335,-4.80403 -0.68095,-0.14564 -0.93532,-0.0319 -1.70555,0.76281 -1.18296,1.22051 -2.00543,1.22256 -3.18269,0.008 -0.49366,-0.50932 -0.9888,-0.92604 -1.10031,-0.92604 -0.11152,0 -0.86035,0.24604 -1.66407,0.54675 -2.14003,0.80069 -4.428986,2.43303 -5.673226,4.04579 -1.09233,1.41587 -1.09233,1.41587 -0.4284,2.91713 0.97325,2.20069 0.91535,2.40996 -0.92358,3.33825 -1.45082,0.73237 -1.5871,0.87507 -1.5829,1.65745 0.0129,2.40907 1.26525,5.99868 2.81182,8.05973 0.59634,0.79472 0.72085,0.84264 1.80373,0.69421 2.018316,-0.27664 2.415376,-0.0397 2.833856,1.69104 0.36174,1.49613 0.39209,1.53175 1.68271,1.97505 1.70966,0.58723 5.62139,0.62062 7.49579,0.064 z" /></clipPath></defs><g
     id="layer1"
     transform="translate(-88.746529,-109.02151)"><path
       style="fill:#ec3227;fill-opacity:1;stroke:#ec3227;stroke-opacity:1"
       d="m 106.7036,145.55067 c -0.73761,-1.28863 -0.74238,-1.29011 -1.57735,-0.49015 -0.95764,0.91748 -1.49275,0.78318 -2.03318,-0.51025 -0.39347,-0.9417 -0.39347,-0.9417 -1.18021,-0.38149 -1.05137,0.74864 -1.63609,0.58674 -1.943666,-0.53816 -0.32907,-1.20354 -0.2492,-1.1564 -1.34607,-0.7944 -1.21581,0.40126 -1.72728,0.0329 -1.72728,-1.24381 0,-0.91629 -6.7e-4,-0.91678 -1.01299,-0.74575 -1.34657,0.2275 -1.77098,-0.2436 -1.407,-1.5618 0.26067,-0.94409 0.26067,-0.94409 -0.74394,-0.94409 -1.40815,0 -1.81369,-0.54815 -1.26177,-1.70554 0.46699,-0.97928 0.38037,-1.20487 -0.46261,-1.20487 -0.31174,0 -0.79791,-0.17292 -1.08039,-0.38427 -0.50586,-0.37848 -0.50456,-0.4003 0.0864,-1.44968 0.60003,-1.06542 0.60003,-1.06542 -0.33445,-1.45587 -1.2735,-0.53211 -1.45722,-1.13926 -0.57448,-1.89856 0.89254,-0.76773 0.88292,-0.92662 -0.0896,-1.48004 -1.02531,-0.58343 -1.02465,-1.36637 0.002,-1.97263 0.96175,-0.56812 0.96741,-0.62857 0.13229,-1.41312 -0.96012,-0.90198 -0.84335,-1.45726 0.41208,-1.95959 1.07355,-0.42954 1.07355,-0.42954 0.51006,-1.22088 -0.75183,-1.05586 -0.59137,-1.64032 0.53488,-1.94826 1.20355,-0.32908 1.15641,-0.24921 0.79441,-1.34607 -0.40214,-1.21849 -0.0326,-1.72728 1.25437,-1.72728 0.92746,0 0.92746,0 0.75984,-1.04822 -0.20474,-1.28035 0.33711,-1.72031 1.65369,-1.34272 0.82367,0.23622 0.82754,0.23262 0.82754,-0.77013 0,-1.42569 0.54647,-1.81736 1.74091,-1.24777 0.69904,0.33335 0.94295,0.3597 1.00952,0.10909 0.576026,-2.16863 0.983256,-2.44206 2.271186,-1.52498 0.79133,0.56348 0.79133,0.56348 1.22088,-0.51006 0.50232,-1.25543 1.0576,-1.3722 1.95959,-0.41209 0.78455,0.83512 0.845,0.82946 1.41312,-0.13229 0.52264,-0.88475 1.33806,-1.03941 1.74371,-0.33073 0.73761,1.28863 0.74237,1.29011 1.57735,0.49015 0.95626,-0.91616 1.49272,-0.78323 2.03016,0.50304 0.39045,0.93449 0.39045,0.93449 1.45587,0.33445 1.04939,-0.591 1.0712,-0.59231 1.44969,-0.0864 0.21134,0.28247 0.38426,0.76864 0.38426,1.08038 0,0.84298 0.2256,0.9296 1.20488,0.46261 1.15825,-0.55233 1.70554,-0.14652 1.70554,1.26464 0,1.00275 0.004,1.00635 0.82755,0.77013 1.31657,-0.37759 1.85842,0.0624 1.65369,1.34272 -0.16762,1.04822 -0.16762,1.04822 0.75984,1.04822 1.34175,0 1.72528,0.57177 1.16776,1.74091 -0.3348,0.70208 -0.3608,0.94626 -0.10909,1.02466 0.18175,0.0566 0.68765,0.21152 1.12421,0.34425 0.99637,0.30292 1.12249,0.89823 0.40404,1.90719 -0.56021,0.78675 -0.56021,0.78675 0.38149,1.18021 1.29344,0.54044 1.42773,1.07554 0.51026,2.03318 -0.79996,0.83498 -0.79848,0.83974 0.49015,1.57735 0.68784,0.39372 0.56105,1.23122 -0.26459,1.74774 -0.40018,0.25035 -0.77845,0.49246 -0.8406,0.53802 -0.0622,0.0456 0.2212,0.43168 0.62968,0.85804 0.89123,0.93024 0.76863,1.43777 -0.4926,2.03921 -0.91826,0.43789 -0.91826,0.43789 -0.33888,1.46742 0.57127,1.01512 0.57219,1.03491 0.0658,1.4138 -0.28247,0.21135 -0.76865,0.38427 -1.08038,0.38427 -0.84298,0 -0.9296,0.22559 -0.46261,1.20487 0.55097,1.1554 0.14607,1.70554 -1.25524,1.70554 -0.99808,0 -0.99808,0 -0.79137,0.91652 0.30802,1.36571 -0.14905,1.85855 -1.40264,1.51242 -0.53705,-0.14829 -0.99171,-0.18991 -1.01035,-0.0925 -0.0186,0.0974 -0.0484,0.57938 -0.0661,1.07104 -0.0435,1.20429 -0.63331,1.55591 -1.70949,1.01904 -0.92121,-0.45956 -0.95843,-0.43479 -1.22701,0.81688 -0.27783,1.29476 -0.83343,1.40341 -2.17564,0.42547 -0.56184,-0.40936 -0.59576,-0.39105 -0.98025,0.52914 -0.54519,1.30485 -1.07816,1.44129 -2.03797,0.52174 -0.83498,-0.79996 -0.83974,-0.79848 -1.57735,0.49015 -0.14577,0.25466 -0.49478,0.46302 -0.77558,0.46302 -0.2808,0 -0.62982,-0.20836 -0.77558,-0.46302 z"
       id="path1"
       clip-path="url(#clipPath72)" /><path
       style="fill:#ec3227;fill-opacity:1"
       d="m 114.27068,132.76685 c -0.26394,-0.69927 -0.35982,-0.74088 -1.38369,-0.60055 -1.1001,0.15079 -1.1001,0.15079 -3.48319,-5.89935 -2.38309,-6.05013 -2.38309,-6.05013 -4.07209,-6.05013 -1.68899,0 -1.68899,0 -1.7719,0.85989 -0.079,0.8196 -0.0403,0.8599 0.8275,0.8599 1.09542,0 1.37076,0.29342 1.77249,1.88883 0.30729,1.22034 0.30729,1.22034 -2.39618,5.42044 -1.48691,2.31006 -2.82158,4.34893 -2.96593,4.53083 -0.20186,0.25435 0.009,0.33073 0.91377,0.33073 1.17625,0 1.17625,0 3.2453,-3.05481 1.34078,-1.97956 2.21209,-3.02726 2.47541,-2.97655 0.2373,0.0457 0.82504,1.12395 1.41276,2.59179 1.8443,4.60619 1.46039,4.24648 3.73468,3.49917 1.97467,-0.64887 1.97467,-0.64887 1.69107,-1.40019 z"
       id="path53" /><path
       style="fill:#ec3227;fill-opacity:1"
       d="m 110.02964,134.8558 c -0.21964,-0.33884 -0.89417,-1.90118 -1.49896,-3.47188 -1.09961,-2.85581 -1.09961,-2.85581 -3.20491,0.19844 -2.1053,3.05425 -2.1053,3.05425 -3.68011,3.05425 -1.20681,0 -1.57482,-0.0906 -1.57482,-0.38766 0,-0.36535 1.06417,-2.10698 4.41894,-7.23213 1.43732,-2.19582 1.43732,-2.19582 1.0682,-3.30729 -0.33592,-1.01147 -0.46248,-1.12336 -1.40678,-1.24375 -1.03765,-0.1323 -1.03765,-0.1323 -1.03765,-1.45521 0,-1.32292 0,-1.32292 1.95874,-1.40147 1.15216,-0.0462 2.07594,0.0386 2.24335,0.20605 0.15654,0.15654 1.30754,2.8708 2.55778,6.03168 2.27318,5.74707 2.27318,5.74707 3.43039,5.74707 1.13274,0 1.16413,0.0237 1.48466,1.12004 0.1801,0.61602 0.22673,1.18229 0.10362,1.25838 -0.12311,0.0761 -1.02193,0.38484 -1.99737,0.68613 -0.97545,0.30128 -1.92929,0.60755 -2.11964,0.6806 -0.19035,0.073 -0.5258,-0.14442 -0.74544,-0.48325 z"
       id="path52" /></g></svg>
